<svg xmlns="http://www.w3.org/2000/svg" width="272" height="32" viewBox="0 0 272 32">
    <path fill="#53565a" d="M155 27.3l-1.2-3.2-1.2 3.3h2.3zm-.7-4L157 30h-1l-.8-2h-3l-.6 2h-1l2.7-6.7h1zm9.5 3.6c0-.3-.2-.5-.3-.7l-.5-.4c-.2-.2-.4-.2-.6-.2h-.7l-.5.6-.3.6V28.3c0 .3 0 .5.2.6l.5.4h1.4l.5-.5.3-.7v-.7-.7zm-3-1.8v.7c.2-.4.4-.6.7-.7.3-.2.6-.2 1-.2.3 0 .7 0 1 .3.2 0 .5.3.7.5l.4 1v2l-.4.7-.7.5-1 .2h-.8c0-.2-.2-.3-.4-.4l-.3-.3V32h-1v-6.8h1zm7.5 2.5h-.5l-.6.2h-.5l-.3.3-.2.5v.3l.3.4h1.4l.3-.3.3-.2V27.6h-.3zm1 2.5s-.3 0-.4-.2c-.2 0-.3-.3-.3-.5l-.7.5c-.3.2-.6.2-1 .2h-.6c-.2 0-.4-.2-.5-.3l-.5-.5v-.7-.6c0-.2.3-.4.4-.5l.4-.2c.2 0 .4 0 .7-.2h.7l.5-.2h.4v-.4-.4l-.3-.3-.3-.2h-.4c-.3 0-.6 0-.8.2s-.4.4-.4.7h-.8c0-.3 0-.5.2-.8 0-.3.2-.4.4-.6s.4-.2.7-.2h1.9c0 .2.2.4.3.5l.2.7v3h.5v.7c0 .2-.3.2-.6.2zm2.2-5v1l.7-1h1v.7h-.7l-.6.5c-.2 0-.3.3-.4.6v3h-1v-4.8h1zm4.5 0v.7h-1V29l.3.2h.7v.7h-1.2-.3l-.2-.4V26h-1V25h1v-1.5h.7v1.5h1zm1.6 0v.8c.4-.6 1-1 1.6-1 .3 0 .6 0 .8.2.2 0 .4.2.5.4l.3.5v4h-.7V27c0-.3 0-.6-.2-.7s-.4-.2-.7-.2h-.5l-.5.4-.2.5V30h-1v-4.8h.8zm7.8 1.4l-.3-.4-.3-.3c-.2-.2-.4-.2-.6-.2h-.5c0 .2-.3.3-.4.4 0 0 0 .3-.2.4v.6h2.7v-.6zm.2 3.2c-.4.3-1 .4-1.4.4-.4 0-.7 0-1-.2-.3 0-.5-.3-.7-.5l-.5-.8v-1-1c0-.4.3-.7.5-1l.7-.4 1-.2c.4 0 .7.2 1 .3s.5.5.7.7l.3 1v1h-3.6v.5c0 .2.2.4.3.5l.5.4h1.7c0-.3.2-.5.3-.8h.8c0 .5-.4 1-.7 1.2zm2.3-4.6v1c0-.4.4-.7.7-1h1v.7h-.8l-.6.5c-.2 0-.3.3-.3.6v3h-.8v-4.8h.7zm4.5.7V25h.8v-.8c0-.4 0-.7.3-1l1-.2h.5v.8h-.3-.7c-.2 0-.2.3-.2.5v.7h1v.7h-1v4h-.7v-4h-.8zm4 2.5c0 .2.2.4.3.5 0 .2.3.3.5.4h1.1l.4-.4.3-.5v-.8-.8c0-.4-.2-.6-.4-.7l-.5-.4c-.2-.2-.4-.2-.6-.2h-.7l-.5.5s-.3.3-.3.6l-.2.7.2.8zm-1-2l.6-.7.8-.5c.3-.2.7-.2 1-.2.5 0 .8 0 1 .3.4 0 .6.3.8.5l.5.8c.2.4.2.7.2 1v1l-.6 1-.7.4c-.4.2-.7.2-1 .2-.5 0-1 0-1.2-.2-.3 0-.5-.3-.7-.5l-.4-.8v-1-1zm6.4-1.3v1c0-.4.4-.7.7-1h1v.7h-.8l-.6.5c-.2 0-.3.3-.3.6v3h-.8v-4.8h.7zm8.7 1.7c0-.3-.2-.5-.3-.7l-.5-.4-.7-.2h-.7l-.5.6-.2.6V28.3l.3.6c.2 0 .4.3.6.4h1.4l.4-.5.3-.7v-.7-.7zm-3-1.8v.7c.2-.4.5-.6.7-.7.3-.2.6-.2 1-.2.3 0 .7 0 1 .3.2 0 .5.3.7.5l.5 1v2l-.4.7-.6.5c-.3.2-.6.2-1 .2h-.9c0-.2-.2-.3-.4-.4 0 0 0-.2-.2-.3V32h-.8v-6.8h.8zm8 1.4s0-.3-.2-.4l-.4-.3c0-.2-.2-.2-.5-.2h-.5l-.4.4c-.2 0-.3.3-.3.4v.6h2.7c0-.2 0-.4-.2-.6zm.3 3.2c-.3.3-.8.4-1.4.4-.3 0-.7 0-1-.2-.3 0-.5-.3-.7-.5-.3-.2-.4-.5-.5-.8l-.2-1c0-.4 0-.8.2-1 0-.4.2-.7.5-1l.7-.4 1-.2 1 .3.7.7c0 .3.3.6.3 1v1h-3.5v.5l.3.5c0 .2.3.3.5.4h1.5c.2-.3.4-.5.4-.8h.7c0 .5-.3 1-.7 1.2zm2.3-1.3c0 .2.2.4.4.5 0 .2.3.3.5.4h1.1l.5-.4c.2 0 .3-.3.4-.5v-.8-.8l-.4-.7c0-.2-.3-.3-.5-.4 0-.2-.3-.2-.6-.2h-.5l-.5.5c-.2 0-.3.3-.4.6v1.5zm-.8-2c0-.2.3-.5.5-.7l.7-.5c.3-.2.7-.2 1-.2.4 0 .8 0 1 .3.4 0 .6.3.8.5l.5.8v2c0 .4-.3.7-.5 1l-.7.4c-.3.2-.7.2-1 .2-.4 0-.8 0-1-.2-.4 0-.6-.3-.8-.5l-.5-.8v-1-1zm9.3.4c0-.3-.2-.5-.3-.7l-.5-.4-.6-.2h-.7l-.5.6-.2.6V28.3l.2.6.5.4h1.4l.6-.5c0-.3 0-.5.2-.7v-.7-.7zm-3-1.8v.7c.2-.4.5-.6.7-.7.3-.2.6-.2 1-.2s.7 0 1 .3l.7.5c0 .3.3.6.4 1v2l-.4.7-.7.5c-.3.2-.6.2-1 .2h-.7l-.5-.4-.3-.3V32h-1v-6.8h1zm5.7 5h-.8v-7h.8v7zm4.5-3.6s0-.3-.3-.4l-.4-.3c-.2-.2-.3-.2-.5-.2h-.6l-.4.4-.3.4v.6h2.7c0-.2 0-.4-.2-.6zm.2 3.2c-.3.3-.8.4-1.4.4-.3 0-.7 0-1-.2l-.7-.5-.3-.8-.2-1c0-.4 0-.8.2-1 0-.4.2-.7.5-1l.7-.4c.2-.2.5-.2.8-.2.4 0 .8.2 1 .3.4.2.6.5.8.7 0 .3.3.6.3 1v1h-3.6v.5c0 .2.2.4.3.5l.5.4h1.4c.2-.3.4-.5.4-.8h1c-.2.5-.4 1-.8 1.2zm3 .3H236v-1h1v1zm8.5-6.7v.8H242v2.2h3.2v.8h-3v3h-1v-6.7h4.5zm1.5 5.2c0 .2.2.4.4.5 0 .2.3.3.4.4h1.2l.5-.4s.3-.3.3-.5l.2-.8-.2-.8c0-.4-.2-.6-.3-.7 0-.2-.3-.3-.5-.4-.2-.2-.4-.2-.6-.2h-.6c0 .2-.3.3-.4.5-.2 0-.3.3-.4.6v1.5zm-.8-2c0-.2.3-.5.5-.7l.6-.5c.3-.2.6-.2 1-.2s.8 0 1 .3c.3 0 .6.3.8.5l.4.8.2 1-.2 1c0 .4-.2.7-.4 1s-.5.3-.7.4c-.3.2-.7.2-1 .2-.5 0-.8 0-1-.2-.4 0-.6-.3-.8-.5l-.6-.8v-1-1zm6.3-1.3v1l.7-1h1v.7h-.7l-.6.5-.2.6v3h-1v-4.8h1zm6 5h-1v-7h1v7zm2 0h-.8v-5h.7v5zm-.8-7h.7v1h-.8v-1zm1.4 2.7V25h.8v-.8c0-.4.2-.7.4-1l1-.2h.3v.8h-.8v1.2h.8v.7h-1v4h-.8v-4h-.8zm6.6.6l-.3-.4-.4-.3c-.2-.2-.4-.2-.6-.2h-.6c0 .2-.2.3-.3.4l-.3.4v.6h2.7v-.6zm.2 3.2c-.4.3-1 .4-1.4.4-.4 0-.7 0-1-.2-.3 0-.6-.3-.7-.5l-.4-.8c0-.3 0-.7-.2-1 0-.4 0-.8.2-1 0-.4.3-.7.5-1 .3 0 .5-.3.8-.4.3-.2.6-.2 1-.2s.7.2 1 .3.5.5.7.7l.4 1v1h-3.7v.5c0 .2.2.4.3.5l.5.4h1.8c0-.3.2-.5.3-.8h1c-.2.5-.5 1-.8 1.2zm2.8.3h-1v-1h1v1zM124 4c.2-1.7 1.6-3 3-3s2.7 1.3 2.5 3c-.2 1.4-1.5 2.6-3 2.6S123.7 5.4 124 4zm.5 0c-.2 1.2.7 2.2 2 2.2s2.4-1 2.6-2.3c.2-1.4-.7-2.5-2-2.5s-2.4 1-2.5 2.4zm3.3 1.4h-.5l-.6-1.4h-.6v1.4h-.5l.4-3h1.2c.6 0 1 0 1 .7 0 .8-.6 1-1 1l.6 1.4zm-1.5-2.6v.8h.4c.4 0 1 0 1-.4s-.3-.4-.6-.4h-.7zm-88 2.7c0-1.2-1-2.2-2.5-2.2-1.7 0-2.8 1.2-3 2.5V6c0 1.3 1 2.3 2.4 2.3 1.7 0 2.8-1.2 3-2.5v-.3zM36.4 12h-3.9l-2.3 18.4v.2h4L36.7 12V12h-.2zm32 3.2V15l.5-3.2v-.2h-1c-2.2 0-4 .6-5.4 2l.2-1.4V12h-3.6-.2l-2.3 18.4v.2H60.5l1-8.7c.8-5 3-6.8 6.3-6.8h.4zm16.4 6c-.5 3.7-3.4 6.2-6.8 6.2-3.2 0-5.2-2-5.2-5v-1c.5-3.7 3.3-6.2 6.8-6.2 3 0 5.2 2 5.2 5v1zM80 11.6c-5.3 0-10.4 4-11.2 9.8v1.3c0 5 4 8.4 8.8 8.4 5.3 0 10.4-4 11-9.7.2-.4.2-1 .2-1.3 0-5-4-8.4-8.8-8.4zM98.4.3H95c-.2 0-.3 0-.3.2l-4 30h.2v.2h3.6l.2-.2 3.8-30-.2-.2zm7.3 11.6h-3.5-.2l-2.4 18.4v.2h4L106 12V12h-.2zm-.6-8.7c-1.6 0-2.7 1.2-3 2.5V6c0 1.3 1 2.3 2.5 2.3 1.7 0 2.8-1.2 3-2.5v-.3c0-1.2-1-2.2-2.4-2.2zm-83 8.3c-2.3 0-4.7 1-6.2 2.8-1-1.8-2.8-2.8-5-2.8-1.8 0-3.4.8-4.7 2l.4-1.4V12H2.5h-.2L0 30.5v.2H4s.2 0 .2-.2l1.2-9.2C5.5 18.4 6.4 15 10 15c2.2 0 2.7 1.5 2.7 3.3v2l-1.4 10v.3H14.7s.2 0 .2-.2L16 21c.3-2.8 1-6 4.7-6 2.3 0 2.7 1.2 2.7 3v2L22 30.3v.2h3.5s.2 0 .2-.2l1.3-11v-1.8c0-1.6-.2-3-1-4.2-1-1-2.3-1.8-4.4-1.8zm98.2 4v-.2l.5-3.2V12H115l.5-4.8c.3-2.3 1.8-3.2 4-3.2h2.6c.2 0 .3 0 .3-.2l.4-3.2V.4h-3.2c-4 0-7.4 2.5-8 6.8l-3 23.2v.2h4l2-15h5.8zm11.5-4c-5.4 0-10.7 4-11.5 9.7v1.4c0 5 4 8.3 9 8.3 4.5 0 9-2.6 10.7-6.7V24h-4.3c-1.3 2-3.5 3.4-6 3.4-3.3 0-5.3-2-5.4-5v-1c.5-3.7 3.4-6.2 7-6.2 1.7 0 3 .5 4 1.5l-5.8 3v.2l-.6 3.7v.2h.2l11.3-5.5s.2-.2 0-.2c-.7-4-4.4-6.8-8.8-6.7zM55 12.8c-1.3-.8-3-1.3-4.8-1.3-5.7 0-10.8 4.3-11.5 9.8v1.2c0 5 3.8 8.5 9 8.5 1.7 0 3.3-.3 4.8-1 0 0 .2 0 .2-.2L53 26h-.2v-.2h-.2c-1.3 1-2.8 1.6-4.4 1.6-1.7 0-3-.5-4-1.4-1-1-1.4-2.2-1.4-3.7v-1c.2-1 .4-1.7.8-2.5.4-.7 1-1.4 1.6-2 1.2-1 3-1.6 4.6-1.6 1.6 0 3 .5 4 1.5h.2l1.2-3.7v-.2z"/>
</svg>
